<?xml version="1.0" encoding="utf-8"?>
<!-- Generator: Adobe Illustrator 21.0.2, SVG Export Plug-In . SVG Version: 6.00 Build 0)  -->
<svg version="1.1" id="Слой_1" xmlns="http://www.w3.org/2000/svg" xmlns:xlink="http://www.w3.org/1999/xlink" x="0px" y="0px"
	 width="14.9px" height="134.6px" viewBox="0 0 14.9 134.6" style="enable-background:new 0 0 14.9 134.6;" xml:space="preserve">
<style type="text/css">
	.st0{fill:#FFFFFF;}
	.st1{fill:#0B75BA;}
</style>
<g id="arrow-right">
	<rect x="0.2" y="75" transform="matrix(0.7071 -0.7071 0.7071 0.7071 -51.2824 28.1533)" class="st0" width="16.2" height="2"/>
	<rect x="7.4" y="78" transform="matrix(0.7071 -0.7071 0.7071 0.7071 -58.4226 31.1815)" class="st0" width="2" height="16.2"/>
</g>
<g id="arrow-left">
	<rect x="7.4" y="27.1" transform="matrix(0.7071 -0.7071 0.7071 0.7071 -22.4126 16.2203)" class="st0" width="2" height="16.2"/>
	<rect x="0.3" y="44.2" transform="matrix(0.7071 -0.7071 0.7071 0.7071 -29.4979 19.1609)" class="st0" width="16.2" height="2"/>
</g>
<path class="st1" d="M1.9,121.4l11.4,11.4l-1.4,1.4L0.5,122.8L1.9,121.4z M11.8,134.6L0.1,122.9l1.8-1.8l11.7,11.7L11.8,134.6z
	 M0.8,122.8l11,11l1.1-1.1l-11-11L0.8,122.8z M13.1,122.8L1.7,134.2l-1.4-1.4l11.4-11.4L13.1,122.8z M1.8,134.6L0,132.8l11.7-11.7
	l1.8,1.8L1.8,134.6z M0.6,132.8l1.1,1.1l11-11l-1.1-1.1L0.6,132.8z"/>
<path class="st0" d="M1.9,0.4l11.4,11.4l-1.4,1.4L0.5,1.8L1.9,0.4z M11.8,13.6L0.1,1.9l1.8-1.8l11.7,11.7L11.8,13.6z M0.8,1.8l11,11
	l1.1-1.1l-11-11L0.8,1.8z M13.1,1.8L1.7,13.2l-1.4-1.4L11.7,0.4L13.1,1.8z M1.8,13.5L0,11.7L11.7,0l1.8,1.8L1.8,13.5z M0.6,11.7
	l1.1,1.1l11-11l-1.1-1.1L0.6,11.7z"/>
</svg>
