<?xml version="1.0" encoding="utf-8"?>
<!-- Generator: Adobe Illustrator 19.1.0, SVG Export Plug-In . SVG Version: 6.00 Build 0)  -->
<svg version="1.1" id="Слой_1" xmlns="http://www.w3.org/2000/svg" xmlns:xlink="http://www.w3.org/1999/xlink" x="0px" y="0px"
	 width="12.4px" height="7.8px" viewBox="-1295.2 2007 12.4 7.8" style="enable-background:new -1295.2 2007 12.4 7.8;"
	 xml:space="preserve">
<style type="text/css">
	.st0{fill:#FFFFFF;}
</style>
<g>
	<g>
		<path class="st0" d="M-1284.4,2007.3l1.4,1.4l-6,6l-1.4-1.4L-1284.4,2007.3z"/>
		<path class="st0" d="M-1289,2014.8l-1.6-1.6l0.1-0.1l6.1-6.1l1.6,1.6l-0.1,0.1L-1289,2014.8z M-1290.2,2013.3l1.2,1.2l5.8-5.8
			l-1.2-1.2L-1290.2,2013.3z"/>
	</g>
</g>
<g>
	<g>
		<path class="st0" d="M-1287.6,2013.3l-1.4,1.4l-6-6l1.4-1.4L-1287.6,2013.3z"/>
		<path class="st0" d="M-1289,2014.8L-1289,2014.8l-6.2-6.2l1.6-1.6l0.1,0.1l6.1,6.1L-1289,2014.8z M-1294.8,2008.7l5.8,5.8l1.2-1.2
			l-5.8-5.8L-1294.8,2008.7z"/>
	</g>
</g>
</svg>
