<?xml version="1.0" encoding="utf-8"?>
<!-- Generator: Adobe Illustrator 21.0.2, SVG Export Plug-In . SVG Version: 6.00 Build 0)  -->
<svg version="1.1" id="Layer_1" xmlns="http://www.w3.org/2000/svg" xmlns:xlink="http://www.w3.org/1999/xlink" x="0px" y="0px"
	 width="16px" height="16px" viewBox="0 0 16 16" style="enable-background:new 0 0 16 16;" xml:space="preserve">
<style type="text/css">
	.st0{fill:#0A3FB4;}
</style>
<g>
	<path class="st0" d="M10.3,14.7h-3c-0.4,0-0.7-0.3-0.7-0.7s0.3-0.7,0.7-0.7h3c0.2,0,0.3-0.2,0.3-0.3v-1c0-0.4,0.3-0.7,0.7-0.7
		S12,11.6,12,12v1C12,13.9,11.3,14.7,10.3,14.7z M15.3,8h-6C9,8,8.7,7.7,8.7,7.3S9,6.7,9.3,6.7h6C15.7,6.7,16,7,16,7.3
		S15.7,8,15.3,8z M15.3,8c-0.2,0-0.3-0.1-0.5-0.2l-2-2c-0.3-0.3-0.3-0.7,0-0.9c0.3-0.3,0.7-0.3,0.9,0l2,2c0.3,0.3,0.3,0.7,0,0.9
		C15.7,7.9,15.5,8,15.3,8z M13.3,10c-0.2,0-0.3-0.1-0.5-0.2c-0.3-0.3-0.3-0.7,0-0.9l2-2c0.3-0.3,0.7-0.3,0.9,0
		c0.3,0.3,0.3,0.7,0,0.9l-2,2C13.7,9.9,13.5,10,13.3,10z M11.3,3.3c-0.4,0-0.7-0.3-0.7-0.7v-1c0-0.2-0.2-0.3-0.3-0.3H1.4
		c0,0-0.1,0-0.1,0.1c0,0.4-0.3,0.7-0.7,0.7S0,1.8,0,1.4C0,0.6,0.6,0,1.4,0h8.9C11.2,0,12,0.7,12,1.7v1C12,3,11.7,3.3,11.3,3.3z
		 M6.7,16c-0.1,0-0.2,0-0.3,0l-5.3-1.1C0.4,14.7,0,14.1,0,13.5V1.8c0-0.4,0.3-0.7,0.6-0.7l0,0c0.1-0.4,0.5-0.6,0.8-0.5L7,2
		c0.6,0.2,1,0.7,1,1.3v11.3c0,0.4-0.2,0.8-0.5,1C7.3,15.9,7,16,6.7,16z M1.3,2v11.6l5.3,1.1V3.4C6.7,3.3,1.3,2,1.3,2z"/>
</g>
</svg>
