<?xml version="1.0" encoding="utf-8"?>
<!-- Generator: Adobe Illustrator 21.0.2, SVG Export Plug-In . SVG Version: 6.00 Build 0)  -->
<svg version="1.1" id="Layer_1" xmlns="http://www.w3.org/2000/svg" xmlns:xlink="http://www.w3.org/1999/xlink" x="0px" y="0px"
	 width="16px" height="16px" viewBox="0 0 16 16" style="enable-background:new 0 0 16 16;" xml:space="preserve">
<style type="text/css">
	.st0{fill:#9A9A9A;}
</style>
<path class="st0" d="M8,8c2.2,0,4.1-1.8,4.1-4.1S10.2,0,8,0S3.9,1.8,3.9,4.1l0,0C3.9,6.3,5.8,8,8,8z M8,1.7c1.3,0,2.3,1.1,2.3,2.3
	S9.3,6.4,8,6.4S5.7,5.3,5.7,4.1l0,0C5.7,2.8,6.7,1.7,8,1.7L8,1.7z"/>
<path class="st0" d="M2.3,16c0-3.1,2.6-5.7,5.7-5.7s5.7,2.6,5.7,5.7h1.7c0-4.1-3.3-7.4-7.4-7.4c-1.9,0-3.8,0.7-5.2,2.1
	S0.6,14,0.6,16H2.3z"/>
</svg>
