<?xml version="1.0" encoding="utf-8"?>
<!-- Generator: Adobe Illustrator 21.0.2, SVG Export Plug-In . SVG Version: 6.00 Build 0)  -->
<svg version="1.1" id="Layer_1" xmlns="http://www.w3.org/2000/svg" xmlns:xlink="http://www.w3.org/1999/xlink" x="0px" y="0px"
	 width="13.8px" height="15px" viewBox="0 0 13.8 15" style="enable-background:new 0 0 13.8 15;" xml:space="preserve">
<style type="text/css">
	.st0{opacity:0.7;fill:#FFFFFF;}
</style>
<path class="st0" d="M6.9,7.5c2.1,0,3.8-1.7,3.8-3.8S9,0,6.9,0S3.1,1.7,3.1,3.8l0,0C3.1,5.9,4.8,7.5,6.9,7.5z M6.9,1.6
	c1.2,0,2.2,1,2.2,2.2S8.1,6,6.9,6S4.7,5,4.7,3.8l0,0C4.7,2.6,5.7,1.6,6.9,1.6L6.9,1.6z"/>
<path class="st0" d="M1.6,15c0-2.9,2.4-5.3,5.3-5.3s5.3,2.4,5.3,5.3h1.6c0-3.8-3.1-6.9-6.9-6.9c-1.8,0-3.6,0.7-4.9,2s-2,3-2,4.9H1.6
	z"/>
</svg>
