<?xml version="1.0" encoding="utf-8"?>
<!-- Generator: Adobe Illustrator 19.1.0, SVG Export Plug-In . SVG Version: 6.00 Build 0)  -->
<svg version="1.1" id="Слой_1" xmlns="http://www.w3.org/2000/svg" xmlns:xlink="http://www.w3.org/1999/xlink" x="0px" y="0px"
	 width="80px" height="80px" viewBox="0 0 80 80" style="enable-background:new 0 0 80 80;" xml:space="preserve">
<style type="text/css">
	.st0{opacity:0.7;fill:#07BEA7;enable-background:new    ;}
	.st1{fill:#97E4DA;}
</style>
<path class="st0" d="M40,40c4.9,0,8.9-4,8.9-8.9s-4-8.6-8.9-8.6s-8.9,4-8.9,8.9l0,0C31.1,36.3,35.1,40,40,40z M40,26.2
	c2.8,0,5.1,2.3,5.1,5.1s-2.3,5.1-5.1,5.1c-2.8,0-5.1-2.3-5.1-5.1l0,0C34.9,28.6,37.2,26.2,40,26.2L40,26.2z"/>
<path class="st0" d="M27.6,57.5c0-6.8,5.6-12.4,12.4-12.4s12.4,5.6,12.4,12.4h3.7c0-8.9-7.2-16.1-16.1-16.1c-4.2,0-8.4,1.6-11.4,4.7
	c-3,3-4.7,7-4.7,11.4H27.6z"/>
<g>
	<path class="st1" d="M40,4c19.9,0,36,16.1,36,36S59.9,76,40,76S4,59.9,4,40S20.1,4,40,4 M40,0C17.9,0,0,17.9,0,40s17.9,40,40,40
		s40-17.9,40-40S62.1,0,40,0L40,0z"/>
</g>
</svg>
