<?xml version="1.0" encoding="utf-8"?>
<!-- Generator: Adobe Illustrator 20.1.0, SVG Export Plug-In . SVG Version: 6.00 Build 0)  -->
<svg version="1.1" id="Слой_1" xmlns="http://www.w3.org/2000/svg" xmlns:xlink="http://www.w3.org/1999/xlink" x="0px" y="0px"
	 width="38px" height="42px" viewBox="0 0 38 42" style="enable-background:new 0 0 38 42;" xml:space="preserve">
<style type="text/css">
	.st0{fill:#E6E6E6;}
	.st1{fill:#333333;}
</style>
<g>
	<path id="Shape_8_copy_копия_1_" class="st0" d="M19,2c1,0,2,0.2,2.7,0.5c0.1,0,0.2,0.1,0.5,0.2c0.4,0.2,0.8,0.4,1.3,0.6
		c1.4,0.7,2.8,1.5,4,2.2l0.2,0.1c1.2,0.7,2.5,1.6,3.8,2.4c0.4,0.3,0.8,0.6,1.1,0.8l0.2,0.2l0.2,0.1c1.3,1,2.6,3.3,2.8,5
		c0,0.1,0,0.3,0,0.5c0,0.4,0.1,0.9,0.1,1.5c0.1,1.6,0.2,3.2,0.2,4.7c0,1.5-0.1,3.1-0.2,4.7c0,0.5-0.1,1-0.1,1.5c0,0.3,0,0.4,0,0.5
		c-0.2,1.7-1.5,4.1-2.8,5l-0.2,0.1l-0.2,0.2c-0.3,0.3-0.7,0.5-1.2,0.8c-1.3,0.9-2.6,1.8-3.9,2.5l0,0c-1.3,0.8-2.6,1.5-4,2.2
		c-0.5,0.2-0.9,0.4-1.3,0.6c-0.2,0.1-0.4,0.2-0.5,0.2C21,39.8,20,40,19,40c-1,0-2-0.2-2.7-0.5l-0.1,0c-0.1,0-0.2-0.1-0.4-0.2
		c-0.4-0.2-0.8-0.4-1.3-0.6c-1.4-0.7-2.7-1.5-4-2.2l0,0c-1.2-0.8-2.5-1.6-3.9-2.5c-0.4-0.3-0.8-0.6-1.2-0.8
		c-0.2-0.1-0.3-0.2-0.4-0.3c-1.3-1-2.6-3.3-2.8-5c0-0.1,0-0.3,0-0.5c0-0.4-0.1-0.9-0.1-1.5C2.1,24.1,2,22.5,2,21
		c0-1.5,0.1-3.1,0.2-4.7c0-0.5,0.1-1,0.1-1.5c0-0.3,0-0.4,0-0.5c0.2-1.7,1.5-4.1,2.8-5.1c0.1-0.1,0.2-0.1,0.4-0.3
		c0.3-0.2,0.7-0.5,1.1-0.8c1.3-0.9,2.5-1.7,3.8-2.4l0.1-0.1c1.2-0.8,2.6-1.5,4-2.2c0.5-0.2,0.9-0.4,1.3-0.6l0.1,0l0.4-0.2
		C17,2.2,18,2,19,2 M19,1c-1.2,0-2.3,0.2-3.2,0.6c-0.1,0-0.2,0.1-0.5,0.2C15,2,14.5,2.2,14.1,2.5c-1.3,0.7-2.7,1.5-4.1,2.3
		c-0.1,0-0.1,0-0.1,0.1C8.6,5.6,7.3,6.5,6,7.3C5.6,7.6,5.2,7.9,4.9,8.1C4.7,8.3,4.6,8.4,4.5,8.4c-1.5,1.2-3,3.8-3.2,5.7
		c0,0.1,0,0.3,0,0.5c0,0.4-0.1,0.9-0.1,1.5C1.1,17.7,1,19.4,1,21c0,1.6,0.1,3.2,0.2,4.8c0,0.5,0.1,1,0.1,1.5c0,0.3,0,0.4,0,0.5
		c0.2,2,1.7,4.6,3.2,5.7c0.1,0.1,0.2,0.2,0.4,0.3c0.3,0.3,0.7,0.5,1.2,0.8c1.2,0.9,2.6,1.7,3.9,2.6l0,0c1.3,0.8,2.7,1.6,4.1,2.3
		c0.5,0.2,0.9,0.5,1.3,0.6c0.2,0.1,0.4,0.2,0.5,0.2c0.9,0.4,2,0.6,3.1,0.6c1.2,0,2.3-0.2,3.2-0.6c0.1,0,0.2-0.1,0.5-0.2
		c0.4-0.2,0.8-0.4,1.3-0.6c1.3-0.7,2.7-1.5,4.1-2.3l0,0c1.3-0.8,2.7-1.7,3.9-2.6c0.4-0.3,0.8-0.6,1.2-0.8c0.2-0.2,0.4-0.3,0.4-0.3
		c1.5-1.1,3-3.8,3.2-5.7c0-0.1,0-0.3,0-0.5c0-0.4,0.1-0.9,0.1-1.5c0.1-1.6,0.2-3.2,0.2-4.8c0-1.6-0.1-3.2-0.2-4.8
		c0-0.5-0.1-1-0.1-1.5c0-0.3,0-0.4,0-0.5c-0.2-2-1.7-4.6-3.2-5.7l0,0c-0.1-0.1-0.2-0.2-0.4-0.3c-0.3-0.2-0.7-0.5-1.1-0.8
		c-1.2-0.8-2.5-1.7-3.8-2.5L28,4.7c-1.3-0.8-2.7-1.6-4.1-2.3C23.5,2.2,23,2,22.6,1.8c-0.2-0.1-0.4-0.2-0.5-0.2C21.3,1.2,20.2,1,19,1
		L19,1z"/>
	<path class="st1" d="M18,24.9c-0.1,0-0.3,0-0.4-0.1c-0.2-0.2-0.2-0.5,0-0.7l3-3l-3-3c-0.2-0.2-0.2-0.5,0-0.7s0.5-0.2,0.7,0l3.4,3.4
		c0.2,0.2,0.2,0.5,0,0.7l-3.4,3.4C18.2,24.9,18.1,24.9,18,24.9z"/>
</g>
</svg>
