<svg xmlns="http://www.w3.org/2000/svg" viewBox="0 0 24 24"><title>Ресурс 1</title><g id="Слой_2" data-name="Слой 2"><g id="Слой_1-2" data-name="Слой 1"><path id="Forma_1" data-name="Forma 1" d="M12.1,12a3.44,3.44,0,0,1,3.16-3.71h.36A3.38,3.38,0,0,1,18.8,10l-1.6.84a1.52,1.52,0,0,0-1.33-1c-1.18,0-1.61.92-1.61,2.13s.51,2.13,1.61,2.13a1.46,1.46,0,0,0,1.48-1l1.49.76a3.6,3.6,0,0,1-3.15,1.87A3.39,3.39,0,0,1,12.1,12ZM8.75,15.72a3.6,3.6,0,0,0,3.15-1.87l-1.49-.76a1.46,1.46,0,0,1-1.48,1c-1.11,0-1.61-.92-1.61-2.13s.43-2.13,1.61-2.13a1.52,1.52,0,0,1,1.33,1l1.6-.84A3.38,3.38,0,0,0,8.69,8.28,3.44,3.44,0,0,0,5.17,12a3.39,3.39,0,0,0,3.58,3.72ZM3.52,20.45A11.77,11.77,0,0,1,0,12,12.09,12.09,0,0,1,3.56,3.48,11.56,11.56,0,0,1,12,0,11.91,11.91,0,0,1,24,11.81q0,.1,0,.19a11.56,11.56,0,0,1-3.42,8.42A12.23,12.23,0,0,1,12,24a11.91,11.91,0,0,1-8.46-3.55ZM2.17,12A10,10,0,0,0,12,21.8a10,10,0,0,0,7-2.93A9.38,9.38,0,0,0,21.83,12a9.77,9.77,0,0,0-9.71-9.83H12A9.43,9.43,0,0,0,5.11,5a9.9,9.9,0,0,0-2.93,7Z" style="fill:#ccc"/></g></g></svg>