<?xml version="1.0" encoding="utf-8"?>
<!-- Generator: Adobe Illustrator 19.1.0, SVG Export Plug-In . SVG Version: 6.00 Build 0)  -->
<svg version="1.1" id="Слой_1" xmlns="http://www.w3.org/2000/svg" xmlns:xlink="http://www.w3.org/1999/xlink" x="0px" y="0px"
	 width="19px" height="19px" viewBox="0 0 19 19" style="enable-background:new 0 0 19 19;" xml:space="preserve">
<style type="text/css">
	.st0{clip-path:url(#SVGID_2_);fill:#CCCCCC;}
	.st1{clip-path:url(#SVGID_4_);fill:#CCCCCC;}
</style>
<g>
	<defs>
		<polygon id="SVGID_1_" points="11,0 11,2 15.6,2 7.3,10.3 8.7,11.7 17,3.4 17,8 19,8 19,0 		"/>
	</defs>
	<clipPath id="SVGID_2_">
		<use xlink:href="#SVGID_1_"  style="overflow:visible;"/>
	</clipPath>
	<rect x="2.3" y="-5" class="st0" width="21.7" height="21.7"/>
</g>
<g>
	<defs>
		<path id="SVGID_3_" d="M13,19H2c-1.1,0-2-0.9-2-2V6c0-1.1,0.9-2,2-2h7v2H2v11h11v-7h2v7C15,18.1,14.1,19,13,19"/>
	</defs>
	<clipPath id="SVGID_4_">
		<use xlink:href="#SVGID_3_"  style="overflow:visible;"/>
	</clipPath>
	<rect x="-5" y="-1" class="st1" width="25" height="25"/>
</g>
</svg>
