<?xml version="1.0" encoding="utf-8"?>
<!-- Generator: Adobe Illustrator 21.0.2, SVG Export Plug-In . SVG Version: 6.00 Build 0)  -->
<svg version="1.1" id="Layer_1" xmlns="http://www.w3.org/2000/svg" xmlns:xlink="http://www.w3.org/1999/xlink" x="0px" y="0px"
	 width="32px" height="29px" viewBox="0 0 32 29" style="enable-background:new 0 0 32 29;" xml:space="preserve">
<style type="text/css">
	.st0{fill:#FFFFFF;}
</style>
<path class="st0" d="M24.5,6.8c0,1-0.7,1.6-1.2,2c-0.2,0.2-0.6,0.5-0.6,0.6c0,0.4-0.3,0.8-0.8,0.8c0,0,0,0,0,0
	c-0.4,0-0.8-0.3-0.8-0.8c0-0.9,0.6-1.4,1.1-1.8c0.4-0.3,0.7-0.6,0.7-0.8c0-0.4-0.4-0.8-0.8-0.8c-0.4,0-0.8,0.4-0.8,0.8
	c0,0.4-0.4,0.8-0.8,0.8c-0.4,0-0.8-0.4-0.8-0.8c0-1.3,1.1-2.4,2.4-2.4C23.4,4.5,24.5,5.5,24.5,6.8z M21.9,10.9
	c-0.4,0-0.8,0.4-0.8,0.8v0c0,0.4,0.3,0.8,0.8,0.8c0.4,0,0.8-0.4,0.8-0.8C22.7,11.3,22.4,10.9,21.9,10.9z M5.9,16.4
	c-0.4,0-0.8,0.4-0.8,0.8c0,0.4,0.4,0.8,0.8,0.8H6c0.4,0,0.8-0.4,0.8-0.8C6.8,16.8,6.4,16.4,5.9,16.4L5.9,16.4z M8.7,16.4
	c-0.4,0-0.8,0.4-0.8,0.8c0,0.4,0.4,0.8,0.8,0.8h0.1c0.4,0,0.8-0.4,0.8-0.8C9.6,16.8,9.2,16.4,8.7,16.4L8.7,16.4z M32,3.8v8.9
	c0,2.1-1.7,3.8-3.8,3.8H17.9c-0.2,0-0.4,0-0.5,0c-0.1,0-0.3,0-0.4,0c-0.1,0-0.2,0.2-0.4,0.3c-0.1,0.1-0.1,0.1-0.2,0.2l-2.9,2.6
	c-0.2,0.2-0.6,0.3-0.9,0.1c-0.3-0.1-0.5-0.4-0.5-0.7v-8.4H3.9c-1.2,0-2.3,1-2.3,2.2v8.9c0,1.2,1,2.2,2.3,2.2h11.5
	c0.2,0,0.4,0.1,0.5,0.2l2.4,2.2v-7.5c0-0.4,0.4-0.8,0.8-0.8s0.8,0.4,0.8,0.8v9.3c0,0.3-0.2,0.6-0.5,0.7c-0.1,0-0.2,0.1-0.3,0.1
	c-0.2,0-0.4-0.1-0.5-0.2L15,25.6H3.9c-2.1,0-3.9-1.7-3.9-3.8v-8.9c0-2.1,1.7-3.8,3.9-3.8h8.3V3.8C12.2,1.7,13.9,0,16,0h12.2
	C30.3,0,32,1.7,32,3.8z M30.4,3.8c0-1.2-1-2.2-2.2-2.2H16c-1.2,0-2.3,1-2.3,2.2v6.1v7.4l1.6-1.4c0.1-0.1,0.2-0.1,0.2-0.2
	c0.7-0.7,0.9-0.8,1.9-0.8c0.1,0,0.3,0,0.5,0h10.3c1.2,0,2.2-1,2.2-2.2V3.8L30.4,3.8z"/>
</svg>
