<?xml version="1.0" encoding="utf-8"?>
<!-- Generator: Adobe Illustrator 21.0.2, SVG Export Plug-In . SVG Version: 6.00 Build 0)  -->
<svg version="1.1" id="Слой_1" xmlns="http://www.w3.org/2000/svg" xmlns:xlink="http://www.w3.org/1999/xlink" x="0px" y="0px"
	 width="19.8px" height="20.8px" viewBox="0 0 19.8 20.8" style="enable-background:new 0 0 19.8 20.8;" xml:space="preserve">
<style type="text/css">
	.st0{fill:#FFFFFF;}
</style>
<path class="st0" d="M9.9,3C9.5,3,9.1,3.1,9,3.2c0,0-1.2,0.5-2.5,1.3C5.1,5.2,4.1,6,4.1,6C3.7,6.3,3.2,7.1,3.1,7.6
	c0,0-0.1,1.3-0.1,2.8s0.1,2.8,0.1,2.8c0.1,0.5,0.5,1.3,0.9,1.6c0,0,1.1,0.8,2.4,1.5C7.8,17.1,9,17.7,9,17.7c0.2,0.1,0.5,0.2,0.9,0.2
	c0.4,0,0.8-0.1,0.9-0.2c0,0,1.2-0.5,2.5-1.3c1.3-0.8,2.4-1.5,2.4-1.5c0.4-0.3,0.9-1.1,0.9-1.6c0,0,0.1-1.3,0.1-2.8
	c0-1.5-0.1-2.8-0.1-2.8c-0.1-0.5-0.5-1.3-0.9-1.6c0,0-1.1-0.8-2.4-1.5c-1.3-0.8-2.5-1.3-2.5-1.3C10.7,3.1,10.3,3,9.9,3 M9.9,20.8
	c-0.8,0-1.5-0.1-2.1-0.4c-0.1,0-1.4-0.6-2.8-1.4c-1.5-0.8-2.6-1.7-2.6-1.7c-1.1-0.8-2-2.4-2.1-3.7c0-0.1-0.2-1.5-0.2-3.1
	s0.2-3.1,0.2-3.1c0.1-1.3,1.1-2.9,2.1-3.7c0,0,1.2-0.9,2.6-1.7C6.4,1,7.7,0.4,7.8,0.4C8.3,0.1,9.1,0,9.9,0c0.6,0,1.4,0.1,2.1,0.4
	c0.1,0,1.4,0.6,2.8,1.4c1.5,0.8,2.6,1.7,2.6,1.7c1.1,0.8,2,2.4,2.1,3.7c0,0.1,0.2,1.5,0.2,3.1c0,1.7-0.2,3.1-0.2,3.1
	c-0.1,1.3-1.1,2.9-2.1,3.7c0,0-1.2,0.9-2.6,1.7c-1.5,0.8-2.8,1.4-2.8,1.4C11.3,20.8,10.4,20.8,9.9,20.8"/>
</svg>
