<?xml version="1.0" encoding="utf-8"?>
<!-- Generator: Adobe Illustrator 19.1.0, SVG Export Plug-In . SVG Version: 6.00 Build 0)  -->
<svg version="1.1" id="Слой_1" xmlns="http://www.w3.org/2000/svg" xmlns:xlink="http://www.w3.org/1999/xlink" x="0px" y="0px"
	 width="24px" height="23px" viewBox="0 0 24 23" style="enable-background:new 0 0 24 23;" xml:space="preserve">
<style type="text/css">
	.st0{fill:#0B75BA;}
</style>
<g>
	<path class="st0" d="M12,3.8l2.5,4.1l0.4,0.7l0.8,0.2l4.6,1.2l-3.1,3.6l-0.5,0.6l0.1,0.8l0.3,4.8L12.7,18l-0.8-0.3L11.2,18
		l-4.4,1.8L7.1,15l0.1-0.8l-0.5-0.6L3.6,9.9l4.7-1.1l0.8-0.2l0.4-0.7L12,3.8 M12.1,0L7.8,6.8L0,8.7l5.2,6.2l-0.7,8l7.4-3l7.4,3.1
		l-0.6-8L24,8.9l-7.8-2L12.1,0L12.1,0z"/>
</g>
</svg>
