<?xml version="1.0" encoding="utf-8"?>
<!-- Generator: Adobe Illustrator 21.0.2, SVG Export Plug-In . SVG Version: 6.00 Build 0)  -->
<svg version="1.1" id="Иконки" xmlns="http://www.w3.org/2000/svg" xmlns:xlink="http://www.w3.org/1999/xlink" x="0px"
	 y="0px" width="16px" height="16px" viewBox="0 0 16 16" style="enable-background:new 0 0 16 16;" xml:space="preserve">
<style type="text/css">
	.st0{fill:#0575BC;}
</style>
<path class="st0" d="M15.8,15.1l-3.9-3.9c1-1.2,1.7-2.8,1.7-4.5c0-3.8-3.1-6.8-6.8-6.8C3,0,0,3.1,0,6.8s3.1,6.8,6.8,6.8
	c1.7,0,3.3-0.6,4.5-1.7l3.9,3.9c0.1,0.1,0.2,0.1,0.3,0.1s0.2,0,0.3-0.1C16,15.6,16,15.3,15.8,15.1L15.8,15.1z M1,6.8
	C1,3.6,3.6,1,6.8,1s5.8,2.6,5.8,5.8s-2.6,5.8-5.8,5.8C3.6,12.7,1,10,1,6.8L1,6.8z"/>
</svg>
