<?xml version="1.0" encoding="utf-8"?>
<!-- Generator: Adobe Illustrator 21.0.2, SVG Export Plug-In . SVG Version: 6.00 Build 0)  -->
<svg version="1.1" id="_x31_" xmlns="http://www.w3.org/2000/svg"  x="0px" y="0px"
	 width="27.9px" height="20.3px" viewBox="0 0 27.9 20.3" style="enable-background:new 0 0 27.9 20.3;" xml:space="preserve">
<style type="text/css">
	.st0{fill:#1A75B4;}
</style>
<g>
	<path class="st0" d="M7.7,8.6c-2.4,0-4.3-1.9-4.3-4.3S5.3,0,7.7,0C10.1,0,12,1.9,12,4.3S10.1,8.6,7.7,8.6z M7.7,2
		C6.4,2,5.4,3,5.4,4.3c0,1.3,1,2.3,2.3,2.3c1.3,0,2.3-1,2.3-2.3C10,3,9,2,7.7,2z"/>
	<rect x="11" y="3.3" class="st0" width="16.9" height="2"/>
	<rect x="0" y="3.3" class="st0" width="4.4" height="2"/>
</g>
<g>
	<path class="st0" d="M20.2,20.3c-2.4,0-4.3-1.9-4.3-4.3s1.9-4.3,4.3-4.3s4.3,1.9,4.3,4.3S22.6,20.3,20.2,20.3z M20.2,13.7
		c-1.3,0-2.3,1-2.3,2.3s1,2.3,2.3,2.3s2.3-1,2.3-2.3S21.5,13.7,20.2,13.7z"/>
	<rect x="0" y="15" class="st0" width="16.9" height="2"/>
	<rect x="23.5" y="15" class="st0" width="4.4" height="2"/>
</g>
</svg>
