<?xml version="1.0" encoding="utf-8"?>
<!-- Generator: Adobe Illustrator 21.0.2, SVG Export Plug-In . SVG Version: 6.00 Build 0)  -->
<svg version="1.1" id="Слой_1" xmlns="http://www.w3.org/2000/svg" xmlns:xlink="http://www.w3.org/1999/xlink" x="0px" y="0px"
	 width="24px" height="24px" viewBox="0 0 24 24" style="enable-background:new 0 0 24 24;" xml:space="preserve">
<style type="text/css">
	.st0{fill:#FFFFFF;}
</style>
<g>
	<g>
		<path class="st0" d="M21.9,9.5h-2.1c-0.3,0-0.6-0.2-0.7-0.5c-0.1-0.3-0.1-0.6,0.2-0.9l1.5-1.5c0.2-0.2,0.3-0.5,0.3-0.8
			c0-0.3-0.1-0.6-0.3-0.8l-1.9-1.9c-0.4-0.4-1.2-0.4-1.6,0l-1.5,1.5C15.6,4.9,15.3,5,15,4.9c-0.3-0.1-0.5-0.4-0.5-0.7V2.1
			C14.5,1.5,14,1,13.4,1h-2.6c-0.6,0-1.1,0.5-1.1,1.1v2.1c0,0.3-0.2,0.6-0.5,0.7C8.8,5,8.5,4.9,8.3,4.7L6.8,3.2
			c-0.4-0.4-1.2-0.4-1.6,0L3.3,5.1C3.1,5.3,3,5.6,3,5.9c0,0.3,0.1,0.6,0.3,0.8l1.5,1.5C5,8.4,5.1,8.7,5,9C4.8,9.3,4.6,9.5,4.2,9.5
			H2.2C1.6,9.5,1,10,1,10.6v2.6c0,0.6,0.5,1.1,1.1,1.1h2.1c0.3,0,0.6,0.2,0.7,0.5c0.1,0.3,0.1,0.6-0.2,0.9l-1.5,1.5
			C3.1,17.4,3,17.7,3,18c0,0.3,0.1,0.6,0.3,0.8l1.9,1.9c0.4,0.4,1.2,0.4,1.6,0l1.5-1.5C8.5,19,8.8,18.9,9.1,19
			c0.3,0.1,0.5,0.4,0.5,0.7v2.1c0,0.6,0.5,1.1,1.1,1.1h2.6c0.6,0,1.1-0.5,1.1-1.1v-2.1c0-0.3,0.2-0.6,0.5-0.7
			c0.3-0.1,0.6-0.1,0.9,0.2l1.5,1.5c0.4,0.4,1.2,0.4,1.6,0l1.9-1.9c0.2-0.2,0.3-0.5,0.3-0.8c0-0.3-0.1-0.6-0.3-0.8l-1.5-1.5
			c-0.2-0.2-0.3-0.6-0.2-0.9c0.1-0.3,0.4-0.5,0.7-0.5h2.1c0.6,0,1.1-0.5,1.1-1.1v-2.6C23,10,22.5,9.5,21.9,9.5L21.9,9.5z M22.2,13.3
			c0,0.2-0.1,0.3-0.3,0.3h-2.1c-0.7,0-1.2,0.4-1.5,1c-0.3,0.6-0.1,1.3,0.3,1.7l1.5,1.5c0.1,0.1,0.1,0.3,0,0.4l-1.9,1.9
			c-0.1,0.1-0.3,0.1-0.4,0l-1.5-1.5c-0.5-0.5-1.1-0.6-1.7-0.3c-0.6,0.3-1,0.8-1,1.5v2.1c0,0.2-0.1,0.3-0.3,0.3h-2.6
			c-0.2,0-0.3-0.1-0.3-0.3v-2.1c0-0.7-0.4-1.2-1-1.5c-0.2-0.1-0.4-0.1-0.6-0.1c-0.4,0-0.8,0.2-1.1,0.5l-1.5,1.5
			c-0.1,0.1-0.3,0.1-0.5,0l-1.9-1.9c-0.1-0.1-0.1-0.3,0-0.5l1.5-1.5c0.5-0.5,0.6-1.1,0.3-1.7c-0.3-0.6-0.8-1-1.5-1H2.2
			c-0.2,0-0.3-0.1-0.3-0.3v-2.6c0-0.2,0.1-0.3,0.3-0.3h2.1c0.7,0,1.2-0.4,1.5-1C6,8.7,5.8,8,5.4,7.6L3.9,6.1C3.8,6,3.8,5.8,3.9,5.7
			l1.9-1.9c0.1-0.1,0.3-0.1,0.5,0l1.5,1.5c0.5,0.5,1.1,0.6,1.7,0.3c0.6-0.3,1-0.8,1-1.5V2.1c0-0.2,0.1-0.3,0.3-0.3h2.6
			c0.2,0,0.3,0.1,0.3,0.3v2.1c0,0.7,0.4,1.2,1,1.5c0.6,0.3,1.3,0.1,1.7-0.3l1.5-1.5c0.1-0.1,0.3-0.1,0.4,0l1.9,1.9
			c0.1,0.1,0.1,0.3,0,0.4l-1.5,1.5c-0.5,0.5-0.6,1.1-0.3,1.8c0.3,0.6,0.8,1,1.5,1h2.1c0.2,0,0.3,0.1,0.3,0.3V13.3z M22.2,13.3"/>
		<path class="st0" d="M13.4,23.5h-2.6c-1,0-1.7-0.8-1.7-1.7v-2.1c0-0.1,0-0.1-0.1-0.2c-0.1,0-0.1,0-0.2,0l-1.5,1.5
			c-0.7,0.7-1.8,0.7-2.5,0l-1.9-1.9c-0.3-0.3-0.5-0.8-0.5-1.2c0-0.5,0.2-0.9,0.5-1.2l1.5-1.5c0.1-0.1,0.1-0.1,0-0.2
			C4.4,15,4.3,15,4.2,15H2.2c-1,0-1.7-0.8-1.7-1.7v-2.6c0-1,0.8-1.7,1.7-1.7h2.1c0.1,0,0.1,0,0.2-0.1c0-0.1,0-0.1,0-0.2L2.9,7.1
			C2.6,6.8,2.4,6.4,2.4,5.9c0-0.5,0.2-0.9,0.5-1.2l1.9-1.9c0.7-0.7,1.8-0.7,2.5,0l1.5,1.5c0.1,0.1,0.1,0.1,0.2,0C9,4.3,9,4.2,9,4.1
			V2.1c0-1,0.8-1.7,1.7-1.7h2.6c1,0,1.7,0.8,1.7,1.7v2.1c0,0.1,0,0.1,0.1,0.2c0.1,0,0.1,0,0.2,0l1.5-1.5c0.7-0.7,1.8-0.7,2.4,0
			l1.9,1.9c0.3,0.3,0.5,0.8,0.5,1.2c0,0.5-0.2,0.9-0.5,1.2l-1.5,1.5c-0.1,0.1-0.1,0.1,0,0.2c0,0.1,0.1,0.1,0.2,0.1h2.1
			c1,0,1.7,0.8,1.7,1.7v2.6c0,1-0.8,1.7-1.7,1.7h-2.1c-0.1,0-0.1,0-0.2,0.1c0,0.1,0,0.1,0,0.2l1.5,1.5c0.3,0.3,0.5,0.8,0.5,1.2
			c0,0.5-0.2,0.9-0.5,1.2l-1.9,1.9c-0.7,0.7-1.8,0.7-2.4,0l-1.5-1.5c-0.1-0.1-0.1-0.1-0.2,0c-0.1,0-0.1,0.1-0.1,0.2v2.1
			C15.1,22.8,14.3,23.5,13.4,23.5z M11,21.5h2.1v-1.8c0-0.9,0.5-1.7,1.4-2c0.8-0.3,1.8-0.2,2.4,0.5l1.3,1.3l1.5-1.5l-1.3-1.3
			c-0.6-0.6-0.8-1.6-0.5-2.4c0.3-0.8,1.1-1.4,2-1.4h1.8v-2.1h-1.8c-0.9,0-1.7-0.5-2-1.4c-0.3-0.8-0.2-1.8,0.5-2.4l1.3-1.3l-1.5-1.5
			l-1.3,1.3c-0.6,0.6-1.6,0.8-2.4,0.5c-0.8-0.3-1.4-1.1-1.4-2V2.4H11v1.8c0,0.9-0.5,1.7-1.4,2C8.8,6.5,7.9,6.3,7.3,5.7L6,4.4
			L4.5,5.9l1.3,1.3c0.6,0.6,0.8,1.6,0.5,2.4c-0.3,0.8-1.1,1.4-2,1.4H2.5V13h1.8c0.9,0,1.7,0.5,2,1.4c0.3,0.8,0.2,1.8-0.5,2.4L4.5,18
			L6,19.5l1.3-1.3c0.6-0.6,1.6-0.8,2.4-0.5c0.8,0.3,1.4,1.1,1.4,2V21.5z M18.3,19.7L18.3,19.7C18.3,19.7,18.3,19.7,18.3,19.7z
			 M19.8,18.2C19.8,18.2,19.8,18.2,19.8,18.2L19.8,18.2z M19.8,17.8L19.8,17.8L19.8,17.8z M21.9,10.9C21.9,10.9,21.9,10.9,21.9,10.9
			L21.9,10.9z M19.8,6.1C19.8,6.1,19.8,6.1,19.8,6.1L19.8,6.1z M19.8,5.7C19.8,5.7,19.7,5.7,19.8,5.7L19.8,5.7z M18.3,4.2L18.3,4.2
			C18.3,4.2,18.3,4.2,18.3,4.2z"/>
	</g>
	<g>
		<path class="st0" d="M12,8.3c-2,0-3.7,1.6-3.7,3.7c0,2,1.6,3.7,3.7,3.7c2,0,3.7-1.6,3.7-3.7C15.7,9.9,14.1,8.3,12,8.3L12,8.3z
			 M12,14.8c-1.6,0-2.9-1.3-2.9-2.9c0-1.6,1.3-2.9,2.9-2.9c1.6,0,2.9,1.3,2.9,2.9C14.9,13.5,13.6,14.8,12,14.8L12,14.8z M12,14.8"/>
		<path class="st0" d="M12,16.2c-2.4,0-4.3-1.9-4.3-4.3c0-2.4,1.9-4.3,4.3-4.3c2.4,0,4.3,1.9,4.3,4.3C16.3,14.3,14.4,16.2,12,16.2z
			 M12,9.7c-1.2,0-2.3,1-2.3,2.3c0,1.2,1,2.3,2.3,2.3c1.2,0,2.3-1,2.3-2.3C14.3,10.7,13.3,9.7,12,9.7z"/>
	</g>
</g>
</svg>
