<svg xmlns="http://www.w3.org/2000/svg" viewBox="0 0 245 245"><defs><clipPath id="clip-path"><path d="M122.5,240A117.5,117.5,0,1,1,240,122.5,117.5,117.5,0,0,1,122.5,240Zm-11-128.5H76v22h35.5V169h22V133.5H169v-22H133.5V76h-22Z" style="fill:#fff;clip-rule:evenodd"/></clipPath></defs><title>Ресурс 1</title><g id="Слой_2" data-name="Слой 2"><g id="Слой_1-2" data-name="Слой 1"><path d="M122.5,240A117.5,117.5,0,1,1,240,122.5,117.5,117.5,0,0,1,122.5,240Zm-11-128.5H76v22h35.5V169h22V133.5H169v-22H133.5V76h-22Z" style="fill:#fff;fill-rule:evenodd"/><g style="clip-path:url(#clip-path)"><rect width="245" height="245" style="fill:#fff"/></g></g></g></svg>