<svg xmlns="http://www.w3.org/2000/svg" viewBox="0 0 18 20.51"><title>Ресурс 1</title><g id="Слой_2" data-name="Слой 2"><g id="_1" data-name="1"><polyline points="15.5 4.87 17 5.5 17 19 11.67 16.74 6.33 19 1 16.74 1 3.24 6.33 5.5 7.84 4.86" style="fill:none;stroke:#b4b5b8;stroke-miterlimit:22.925600000000003;stroke-width:1.9998px;fill-rule:evenodd"/><path d="M7.92,4.09a4.42,4.42,0,0,0,.27,2.35,16.39,16.39,0,0,0,3.47,4.81,16.39,16.39,0,0,0,3.47-4.81,4.41,4.41,0,0,0,.27-2.35A3.68,3.68,0,0,0,11.66,1,3.68,3.68,0,0,0,7.92,4.09Z" style="fill:none;stroke:#b4b5b8;stroke-miterlimit:22.925600000000003;stroke-width:1.9998px;fill-rule:evenodd"/></g></g></svg>