<svg xmlns="http://www.w3.org/2000/svg" viewBox="0 0 107.27 84.82"><defs><style>.cls-1{fill:none;}.cls-2{clip-path:url(#clip-path);}.cls-3{fill:#d8d8d8;}.cls-4{clip-path:url(#clip-path-2);}.cls-5{clip-path:url(#clip-path-3);}</style><clipPath id="clip-path"><path class="cls-1" d="M10.8,34.09H96.46a6.65,6.65,0,0,1,6.65,6.65v3.34a6.64,6.64,0,0,1-6.64,6.64H10.8a6.64,6.64,0,0,1-6.64-6.64V40.74a6.64,6.64,0,0,1,6.64-6.64Z"/></clipPath><clipPath id="clip-path-2"><path class="cls-1" d="M10.8,64H96.46a6.65,6.65,0,0,1,6.65,6.65V74a6.64,6.64,0,0,1-6.64,6.64H10.8A6.65,6.65,0,0,1,4.16,74V70.67A6.64,6.64,0,0,1,10.8,64Z"/></clipPath><clipPath id="clip-path-3"><path class="cls-1" d="M10.8,4.16H96.46a6.65,6.65,0,0,1,6.65,6.65v3.34a6.64,6.64,0,0,1-6.64,6.64H10.8a6.65,6.65,0,0,1-6.65-6.65V10.8A6.64,6.64,0,0,1,10.8,4.16Z"/></clipPath></defs><title>Ресурс 2</title><g id="Слой_2" data-name="Слой 2"><g id="Слой_1-2" data-name="Слой 1"><g class="cls-2"><rect class="cls-3" y="29.93" width="107.27" height="24.95"/></g><g class="cls-4"><rect class="cls-3" y="59.87" width="107.27" height="24.95"/></g><g class="cls-5"><rect class="cls-3" width="107.27" height="24.95"/></g></g></g></svg>