<?xml version="1.0" encoding="utf-8"?>
<!-- Generator: Adobe Illustrator 21.0.2, SVG Export Plug-In . SVG Version: 6.00 Build 0)  -->
<svg version="1.1" id="Layer_1" xmlns="http://www.w3.org/2000/svg"  x="0px" y="0px"
	 width="19px" height="11.5px" viewBox="0 0 19 11.5" style="enable-background:new 0 0 19 11.5;" xml:space="preserve">
<style type="text/css">
	.st0{fill:#767676;}
</style>
<g>
	<g>
		<path class="st0" d="M18.8,5.3C16,1.8,12.9,0,9.6,0C8.3,0,7,0.3,5.7,0.8c-1,0.4-2,1.1-3,1.8C1.1,4,0.2,5.3,0.1,5.3
			C-0.1,5.6,0,6,0.2,6.2c2.9,3.5,6,5.3,9.2,5.3c1.3,0,2.6-0.3,3.9-0.8c1-0.4,2-1.1,3-1.8c1.6-1.3,2.6-2.6,2.6-2.7
			C19.1,5.9,19,5.6,18.8,5.3z M15.3,7.8c-1.3,1.1-3.5,2.4-6,2.4c-2.7,0-5.3-1.5-7.8-4.4c0.4-0.5,1.1-1.2,2.1-2
			c1.3-1.1,3.5-2.4,6-2.4c2.7,0,5.3,1.5,7.8,4.4C17,6.2,16.3,7,15.3,7.8z"/>
	</g>
</g>
<g>
	<g>
		<path class="st0" d="M12.1,5.1c-0.4,0-0.7,0.3-0.7,0.7c0,1-0.8,1.9-1.9,1.9S7.6,6.8,7.6,5.8s0.8-1.9,1.9-1.9
			c0.4,0,0.7-0.3,0.7-0.7S9.9,2.5,9.5,2.5C7.7,2.5,6.2,4,6.2,5.8S7.7,9,9.5,9s3.3-1.5,3.3-3.3C12.8,5.4,12.5,5.1,12.1,5.1z"/>
	</g>
</g>
</svg>
