<?xml version="1.0" encoding="utf-8"?>
<!-- Generator: Adobe Illustrator 21.0.2, SVG Export Plug-In . SVG Version: 6.00 Build 0)  -->
<svg version="1.1" id="Layer_1" xmlns="http://www.w3.org/2000/svg"  x="0px" y="0px"
	 width="19px" height="15.2px" viewBox="0 0 19 15.2" style="enable-background:new 0 0 19 15.2;" xml:space="preserve">
<style type="text/css">
	.st0{fill:#767676;}
</style>
<g>
	<g>
		<path class="st0" d="M16.9,0.2c-0.3-0.3-0.7-0.3-1,0l-2.5,2.5c-3.1-1.4-6.4-1.1-9.5,1C1.6,5.2,0.2,7.1,0.1,7.2
			C-0.1,7.4,0,7.8,0.2,8c1.3,1.6,2.7,2.9,4.1,3.8L2.1,14c-0.3,0.3-0.3,0.7,0,1c0.1,0.1,0.3,0.2,0.5,0.2c0.2,0,0.4-0.1,0.5-0.2
			L16.9,1.2C17.2,0.9,17.2,0.5,16.9,0.2z M7.8,8.3C7.7,8.1,7.6,7.9,7.6,7.6c0-0.5,0.2-1,0.6-1.3c0.6-0.6,1.4-0.7,2.1-0.4L7.8,8.3z
			 M11.3,4.8C10,4,8.3,4.2,7.2,5.3c-0.6,0.6-1,1.4-1,2.3c0,0.6,0.2,1.2,0.5,1.8l-1.4,1.4C4.1,10.1,2.8,9,1.6,7.6
			C2.1,7,3.2,5.8,4.7,4.8c2.6-1.7,5.2-2,7.7-1.1L11.3,4.8z"/>
	</g>
</g>
<g>
	<g>
		<path class="st0" d="M18.8,7.2c-1-1.2-2-2.2-3-3c-0.3-0.2-0.7-0.2-1,0.1c-0.2,0.3-0.2,0.7,0.1,1c0.8,0.6,1.6,1.4,2.4,2.3
			C16.9,8.1,16,9.1,14.8,10c-2.3,1.7-4.7,2.3-7,1.8C7.5,11.7,7.1,12,7,12.3c-0.1,0.4,0.2,0.7,0.5,0.8c0.6,0.1,1.2,0.2,1.8,0.2
			c0.9,0,1.8-0.1,2.8-0.4c1.2-0.4,2.4-1,3.6-1.8c2-1.4,3.1-3,3.2-3.1C19.1,7.8,19,7.4,18.8,7.2z"/>
	</g>
</g>
</svg>
