<?xml version="1.0" encoding="utf-8"?>
<!-- Generator: Adobe Illustrator 21.0.2, SVG Export Plug-In . SVG Version: 6.00 Build 0)  -->
<svg version="1.1" id="Layer_1" xmlns="http://www.w3.org/2000/svg" xmlns:xlink="http://www.w3.org/1999/xlink" x="0px" y="0px"
	 width="20px" height="18.3px" viewBox="0 0 20 18.3" style="enable-background:new 0 0 20 18.3;" xml:space="preserve">
<style type="text/css">
	.st0{fill:#0B75BA;}
</style>
<title>Ресурс 1</title>
<g id="Слой_2">
	<g id="Слой_1-2">
		<path class="st0" d="M7.9,2.7C10.7,2.7,13,5,13,7.9S10.7,13,7.9,13s-5.1-2.3-5.1-5.1l0,0C2.7,5,5,2.7,7.9,2.7 M7.9,0
			C3.5,0,0,3.5,0,7.9s3.5,7.9,7.9,7.9s7.9-3.5,7.9-7.9l0,0C15.7,3.5,12.2,0,7.9,0z"/>
		<rect x="15" y="11.2" transform="matrix(0.6609 -0.7504 0.7504 0.6609 -5.5715 17.2979)" class="st0" width="2.7" height="7.3"/>
	</g>
</g>
</svg>
