<?xml version="1.0" encoding="utf-8"?>
<!-- Generator: Adobe Illustrator 21.0.2, SVG Export Plug-In . SVG Version: 6.00 Build 0)  -->
<svg version="1.1" id="Layer_1" xmlns="http://www.w3.org/2000/svg" xmlns:xlink="http://www.w3.org/1999/xlink" x="0px" y="0px"
	 width="392.5px" height="195px" viewBox="0 0 392.5 195" style="enable-background:new 0 0 392.5 195;" xml:space="preserve">
<style type="text/css">
	.st0{fill:#B3B3B3;}
	.st1{clip-path:url(#SVGID_4_);fill:#B3B3B3;}
	.st2{clip-path:url(#SVGID_8_);fill:#B3B3B3;}
	.st3{clip-path:url(#SVGID_12_);fill:#B3B3B3;}
	.st4{clip-path:url(#SVGID_16_);fill:#B3B3B3;}
	.st5{clip-path:url(#SVGID_20_);fill:#B3B3B3;}
	.st6{clip-path:url(#SVGID_24_);fill:#B3B3B3;}
	.st7{fill:#337AB7;}
	.st8{clip-path:url(#SVGID_26_);fill:#337AB7;}
	.st9{clip-path:url(#SVGID_28_);fill:#337AB7;}
	.st10{clip-path:url(#SVGID_30_);fill:#337AB7;}
	.st11{clip-path:url(#SVGID_32_);fill:#337AB7;}
	.st12{clip-path:url(#SVGID_34_);fill:#337AB7;}
	.st13{clip-path:url(#SVGID_36_);fill:#337AB7;}
	.st14{clip-path:url(#SVGID_38_);fill:#B3B3B3;}
	.st15{display:none;fill:#B3B3B3;}
	.st16{clip-path:url(#SVGID_40_);fill:#0575BC;}
	.st17{fill:#D2D2D2;}
	.st18{clip-path:url(#SVGID_42_);fill:#767676;}
	.st19{fill:#2B2B2B;}
	.st20{fill:#0575BC;}
</style>
<title>Ресурс 1</title>
<g id="Слой_2">
	<g id="_1">
		<path class="st0" d="M10,0.7c5.5,0,10,4.5,10,10s-4.5,10-10,10s-10-4.5-10-10S4.5,0.7,10,0.7L10,0.7z M10,12.3
			c-2.2,0-4.2,1-5.6,2.7c2.4,3.1,6.9,3.6,9.9,1.2c0.5-0.4,0.9-0.8,1.2-1.2C14.3,13.3,12.2,12.3,10,12.3z M10,4.1c-1.7,0-3,1.4-3,3
			s1.4,3,3,3c1.7,0,3-1.4,3-3l0,0C13,5.5,11.7,4.1,10,4.1L10,4.1z"/>
	</g>
</g>
<g>
	<g id="_x32__26_">
		<g>
			<path class="st0" d="M50.2,9.9h-4.4c-0.2,0-0.4,0.2-0.4,0.4s0.2,0.4,0.4,0.4h4.4c0.2,0,0.4-0.2,0.4-0.4S50.4,9.9,50.2,9.9z
				 M51.1,7.3H45c-0.2,0-0.4,0.2-0.4,0.4s0.2,0.4,0.4,0.4h6.1c0.2,0,0.4-0.2,0.4-0.4S51.3,7.3,51.1,7.3z M48,2.5c-3.9,0-7,2.7-7,6.1
				c0,1.9,1,3.7,2.6,4.8v3.1l3.1-1.9c0.4,0.1,0.9,0.1,1.3,0.1c1.9,0,3.6-0.7,4.9-1.7c1.3-1.1,2.1-2.7,2.1-4.4
				C55,5.2,51.9,2.5,48,2.5z M48,13.9c-0.5,0-1-0.1-1.5-0.2l-2,1.3v-2c-1.6-0.9-2.6-2.5-2.6-4.3c0-2.9,2.7-5.3,6.1-5.3
				s6.1,2.4,6.1,5.3S51.4,13.9,48,13.9z"/>
		</g>
	</g>
</g>
<g>
	<g>
		<path id="SVGID_1_" class="st0" d="M76.3,8.5c0-0.4,0.3-0.6,0.6-0.6h6.2c0.4,0,0.6,0.3,0.6,0.6c0,0.4-0.3,0.6-0.6,0.6H77
			C76.6,9.1,76.3,8.9,76.3,8.5z"/>
	</g>
	<g>
		<g>
			<g>
				<g>
					<g>
						<g>
							<defs>
								<path id="SVGID_2_" d="M76.3,8.5c0-0.4,0.3-0.6,0.6-0.6h6.2c0.4,0,0.6,0.3,0.6,0.6c0,0.4-0.3,0.6-0.6,0.6H77
									C76.6,9.1,76.3,8.9,76.3,8.5z"/>
							</defs>
							<clipPath id="SVGID_4_">
								<use xlink:href="#SVGID_2_"  style="overflow:visible;"/>
							</clipPath>
							<rect x="75.5" y="7.1" class="st1" width="9" height="2.8"/>
						</g>
					</g>
				</g>
			</g>
		</g>
	</g>
</g>
<g>
	<g>
		<path id="SVGID_3_" class="st0" d="M80.6,5.1v6.7c0,0.4-0.3,0.6-0.6,0.6s-0.6-0.3-0.6-0.6V5.1c0-0.4,0.3-0.6,0.6-0.6
			S80.6,4.7,80.6,5.1z"/>
	</g>
	<g>
		<g>
			<g>
				<g>
					<g>
						<g>
							<defs>
								<path id="SVGID_6_" d="M80.6,5.1v6.7c0,0.4-0.3,0.6-0.6,0.6s-0.6-0.3-0.6-0.6V5.1c0-0.4,0.3-0.6,0.6-0.6S80.6,4.7,80.6,5.1z
									"/>
							</defs>
							<clipPath id="SVGID_8_">
								<use xlink:href="#SVGID_6_"  style="overflow:visible;"/>
							</clipPath>
							<rect x="78.6" y="3.7" class="st2" width="2.7" height="9.5"/>
						</g>
					</g>
				</g>
			</g>
		</g>
	</g>
</g>
<g>
	<g>
		<path id="SVGID_5_" class="st0" d="M106.8,8.5c0-0.3,0.2-0.6,0.6-0.6h5.3c0.3,0,0.6,0.2,0.6,0.6c0,0.3-0.2,0.6-0.6,0.6h-5.3
			C107.1,9,106.8,8.8,106.8,8.5z"/>
	</g>
	<g>
		<g>
			<g>
				<g>
					<g>
						<g>
							<defs>
								<path id="SVGID_10_" d="M106.8,8.5c0-0.3,0.2-0.6,0.6-0.6h5.3c0.3,0,0.6,0.2,0.6,0.6c0,0.3-0.2,0.6-0.6,0.6h-5.3
									C107.1,9,106.8,8.8,106.8,8.5z"/>
							</defs>
							<clipPath id="SVGID_12_">
								<use xlink:href="#SVGID_10_"  style="overflow:visible;"/>
							</clipPath>
							<rect x="106.2" y="7.2" class="st3" width="7.7" height="2.4"/>
						</g>
					</g>
				</g>
			</g>
		</g>
	</g>
</g>
<g>
	<g>
		<circle id="SVGID_7_" class="st0" cx="140" cy="8.5" r="0.6"/>
	</g>
	<g>
		<g>
			<g>
				<g>
					<g>
						<g>
							<defs>
								<circle id="SVGID_14_" cx="140" cy="8.5" r="0.6"/>
							</defs>
							<clipPath id="SVGID_16_">
								<use xlink:href="#SVGID_14_"  style="overflow:visible;"/>
							</clipPath>
							<rect x="138.8" y="7.2" class="st4" width="2.5" height="2.5"/>
						</g>
					</g>
				</g>
			</g>
		</g>
	</g>
</g>
<g>
	<g>
		<circle id="SVGID_9_" class="st0" cx="137.5" cy="8.5" r="0.6"/>
	</g>
	<g>
		<g>
			<g>
				<g>
					<g>
						<g>
							<defs>
								<circle id="SVGID_18_" cx="137.5" cy="8.5" r="0.6"/>
							</defs>
							<clipPath id="SVGID_20_">
								<use xlink:href="#SVGID_18_"  style="overflow:visible;"/>
							</clipPath>
							<rect x="136.3" y="7.2" class="st5" width="2.5" height="2.5"/>
						</g>
					</g>
				</g>
			</g>
		</g>
	</g>
</g>
<g>
	<g>
		<circle id="SVGID_11_" class="st0" cx="142.5" cy="8.5" r="0.6"/>
	</g>
	<g>
		<g>
			<g>
				<g>
					<g>
						<g>
							<defs>
								<circle id="SVGID_22_" cx="142.5" cy="8.5" r="0.6"/>
							</defs>
							<clipPath id="SVGID_24_">
								<use xlink:href="#SVGID_22_"  style="overflow:visible;"/>
							</clipPath>
							<rect x="141.2" y="7.2" class="st6" width="2.5" height="2.5"/>
						</g>
					</g>
				</g>
			</g>
		</g>
	</g>
</g>
<g>
	<g id="_x32__1_">
		<g>
			<path class="st7" d="M50.2,36.9h-4.4c-0.2,0-0.4,0.2-0.4,0.4s0.2,0.4,0.4,0.4h4.4c0.2,0,0.4-0.2,0.4-0.4S50.4,36.9,50.2,36.9z
				 M51.1,34.3H45c-0.2,0-0.4,0.2-0.4,0.4s0.2,0.4,0.4,0.4h6.1c0.2,0,0.4-0.2,0.4-0.4S51.3,34.3,51.1,34.3z M48,29.5
				c-3.9,0-7,2.7-7,6.1c0,1.9,1,3.7,2.6,4.8v3.1l3.1-1.9c0.4,0.1,0.9,0.1,1.3,0.1c1.9,0,3.6-0.7,4.9-1.7c1.3-1.1,2.1-2.7,2.1-4.4
				C55,32.2,51.9,29.5,48,29.5z M48,40.9c-0.5,0-1-0.1-1.5-0.2l-2,1.3v-2c-1.6-0.9-2.6-2.5-2.6-4.3c0-2.9,2.7-5.3,6.1-5.3
				s6.1,2.4,6.1,5.3C54.1,38.6,51.4,40.9,48,40.9z"/>
		</g>
	</g>
</g>
<g>
	<path class="st0" d="M80,2c3.6,0,6.5,2.9,6.5,6.5S83.6,15,80,15s-6.5-2.9-6.5-6.5S76.4,2,80,2 M80,1c-4.1,0-7.5,3.4-7.5,7.5
		S75.9,16,80,16s7.5-3.4,7.5-7.5S84.1,1,80,1L80,1z"/>
</g>
<g>
	<path class="st0" d="M110,2c3.6,0,6.5,2.9,6.5,6.5S113.6,15,110,15s-6.5-2.9-6.5-6.5S106.4,2,110,2 M110,1c-4.1,0-7.5,3.4-7.5,7.5
		s3.4,7.5,7.5,7.5s7.5-3.4,7.5-7.5S114.1,1,110,1L110,1z"/>
</g>
<g>
	<path class="st0" d="M140,2c3.6,0,6.5,2.9,6.5,6.5S143.6,15,140,15s-6.5-2.9-6.5-6.5S136.4,2,140,2 M140,1c-4.1,0-7.5,3.4-7.5,7.5
		s3.4,7.5,7.5,7.5s7.5-3.4,7.5-7.5S144.1,1,140,1L140,1z"/>
</g>
<g>
	<g>
		<path id="SVGID_13_" class="st7" d="M76.3,34.5c0-0.4,0.3-0.6,0.6-0.6h6.2c0.4,0,0.6,0.3,0.6,0.6c0,0.4-0.3,0.6-0.6,0.6H77
			C76.6,35.1,76.3,34.9,76.3,34.5z"/>
	</g>
	<g>
		<g>
			<g>
				<g>
					<g>
						<g>
							<defs>
								<path id="SVGID_25_" d="M76.3,34.5c0-0.4,0.3-0.6,0.6-0.6h6.2c0.4,0,0.6,0.3,0.6,0.6c0,0.4-0.3,0.6-0.6,0.6H77
									C76.6,35.1,76.3,34.9,76.3,34.5z"/>
							</defs>
							<clipPath id="SVGID_26_">
								<use xlink:href="#SVGID_25_"  style="overflow:visible;"/>
							</clipPath>
							<rect x="75.5" y="33.1" class="st8" width="9" height="2.8"/>
						</g>
					</g>
				</g>
			</g>
		</g>
	</g>
</g>
<g>
	<g>
		<path id="SVGID_15_" class="st7" d="M80.6,31.1v6.7c0,0.4-0.3,0.6-0.6,0.6s-0.6-0.3-0.6-0.6v-6.7c0-0.4,0.3-0.6,0.6-0.6
			S80.6,30.7,80.6,31.1z"/>
	</g>
	<g>
		<g>
			<g>
				<g>
					<g>
						<g>
							<defs>
								<path id="SVGID_27_" d="M80.6,31.1v6.7c0,0.4-0.3,0.6-0.6,0.6s-0.6-0.3-0.6-0.6v-6.7c0-0.4,0.3-0.6,0.6-0.6
									S80.6,30.7,80.6,31.1z"/>
							</defs>
							<clipPath id="SVGID_28_">
								<use xlink:href="#SVGID_27_"  style="overflow:visible;"/>
							</clipPath>
							<rect x="78.6" y="29.7" class="st9" width="2.7" height="9.5"/>
						</g>
					</g>
				</g>
			</g>
		</g>
	</g>
</g>
<g>
	<g>
		<path id="SVGID_17_" class="st7" d="M106.8,34.5c0-0.3,0.2-0.6,0.6-0.6h5.3c0.3,0,0.6,0.2,0.6,0.6c0,0.3-0.2,0.6-0.6,0.6h-5.3
			C107.1,35,106.8,34.8,106.8,34.5z"/>
	</g>
	<g>
		<g>
			<g>
				<g>
					<g>
						<g>
							<defs>
								<path id="SVGID_29_" d="M106.8,34.5c0-0.3,0.2-0.6,0.6-0.6h5.3c0.3,0,0.6,0.2,0.6,0.6c0,0.3-0.2,0.6-0.6,0.6h-5.3
									C107.1,35,106.8,34.8,106.8,34.5z"/>
							</defs>
							<clipPath id="SVGID_30_">
								<use xlink:href="#SVGID_29_"  style="overflow:visible;"/>
							</clipPath>
							<rect x="106.2" y="33.2" class="st10" width="7.7" height="2.4"/>
						</g>
					</g>
				</g>
			</g>
		</g>
	</g>
</g>
<g>
	<g>
		<circle id="SVGID_19_" class="st7" cx="140" cy="34.5" r="0.6"/>
	</g>
	<g>
		<g>
			<g>
				<g>
					<g>
						<g>
							<defs>
								<circle id="SVGID_31_" cx="140" cy="34.5" r="0.6"/>
							</defs>
							<clipPath id="SVGID_32_">
								<use xlink:href="#SVGID_31_"  style="overflow:visible;"/>
							</clipPath>
							<rect x="138.8" y="33.2" class="st11" width="2.5" height="2.5"/>
						</g>
					</g>
				</g>
			</g>
		</g>
	</g>
</g>
<g>
	<g>
		<circle id="SVGID_21_" class="st7" cx="137.5" cy="34.5" r="0.6"/>
	</g>
	<g>
		<g>
			<g>
				<g>
					<g>
						<g>
							<defs>
								<circle id="SVGID_33_" cx="137.5" cy="34.5" r="0.6"/>
							</defs>
							<clipPath id="SVGID_34_">
								<use xlink:href="#SVGID_33_"  style="overflow:visible;"/>
							</clipPath>
							<rect x="136.3" y="33.2" class="st12" width="2.5" height="2.5"/>
						</g>
					</g>
				</g>
			</g>
		</g>
	</g>
</g>
<g>
	<g>
		<circle id="SVGID_23_" class="st7" cx="142.5" cy="34.5" r="0.6"/>
	</g>
	<g>
		<g>
			<g>
				<g>
					<g>
						<g>
							<defs>
								<circle id="SVGID_35_" cx="142.5" cy="34.5" r="0.6"/>
							</defs>
							<clipPath id="SVGID_36_">
								<use xlink:href="#SVGID_35_"  style="overflow:visible;"/>
							</clipPath>
							<rect x="141.2" y="33.2" class="st13" width="2.5" height="2.5"/>
						</g>
					</g>
				</g>
			</g>
		</g>
	</g>
</g>
<g>
	<path class="st7" d="M80,28c3.6,0,6.5,2.9,6.5,6.5S83.6,41,80,41s-6.5-2.9-6.5-6.5S76.4,28,80,28 M80,27c-4.1,0-7.5,3.4-7.5,7.5
		S75.9,42,80,42s7.5-3.4,7.5-7.5S84.1,27,80,27L80,27z"/>
</g>
<g>
	<path class="st7" d="M110,28c3.6,0,6.5,2.9,6.5,6.5S113.6,41,110,41s-6.5-2.9-6.5-6.5S106.4,28,110,28 M110,27
		c-4.1,0-7.5,3.4-7.5,7.5s3.4,7.5,7.5,7.5s7.5-3.4,7.5-7.5S114.1,27,110,27L110,27z"/>
</g>
<g>
	<path class="st7" d="M140,28c3.6,0,6.5,2.9,6.5,6.5S143.6,41,140,41s-6.5-2.9-6.5-6.5S136.4,28,140,28 M140,27
		c-4.1,0-7.5,3.4-7.5,7.5s3.4,7.5,7.5,7.5s7.5-3.4,7.5-7.5S144.1,27,140,27L140,27z"/>
</g>
<g>
	<g>
		<g>
			<path class="st0" d="M200,0c-4,0-7.8,1.6-10.6,4.4C186.6,7.2,185,11,185,15s1.6,7.8,4.4,10.6S196,30,200,30s7.8-1.6,10.6-4.4
				S215,19,215,15s-1.6-7.8-4.4-10.6C207.8,1.6,204,0,200,0L200,0z M200,28.3c-3.5,0-6.9-1.4-9.4-3.9c-5.2-5.2-5.2-13.6,0-18.8
				c2.5-2.5,5.9-3.9,9.4-3.9s6.9,1.4,9.4,3.9c5.2,5.2,5.2,13.6,0,18.8C206.9,26.9,203.5,28.3,200,28.3L200,28.3z"/>
		</g>
		<g>
			<path class="st0" d="M206,8.1c-0.2,0-0.4,0.1-0.6,0.3l-5.4,5.4l-5.4-5.4c-0.2-0.2-0.4-0.3-0.6-0.3s-0.4,0.1-0.6,0.3
				c-0.3,0.3-0.3,0.9,0,1.2l5.4,5.4l-5.4,5.4c-0.3,0.3-0.3,0.9,0,1.2c0.2,0.2,0.4,0.3,0.6,0.3s0.4-0.1,0.6-0.3l5.4-5.4l5.4,5.4
				c0.2,0.2,0.4,0.3,0.6,0.3s0.4-0.1,0.6-0.3c0.3-0.3,0.3-0.9,0-1.2l-5.4-5.4l5.4-5.4c0.3-0.3,0.3-0.9,0-1.2
				C206.4,8.2,206.2,8.1,206,8.1L206,8.1z"/>
		</g>
	</g>
</g>
<g>
	<g>
		<g>
			<path class="st7" d="M200,45c-4,0-7.8,1.6-10.6,4.4C186.6,52.2,185,56,185,60s1.6,7.8,4.4,10.6c2.8,2.8,6.6,4.4,10.6,4.4
				s7.8-1.6,10.6-4.4c2.8-2.8,4.4-6.6,4.4-10.6s-1.6-7.8-4.4-10.6C207.8,46.6,204,45,200,45L200,45z M200,73.3
				c-3.5,0-6.9-1.4-9.4-3.9c-5.2-5.2-5.2-13.6,0-18.8c2.5-2.5,5.9-3.9,9.4-3.9s6.9,1.4,9.4,3.9c5.2,5.2,5.2,13.6,0,18.8
				C206.9,71.9,203.5,73.3,200,73.3L200,73.3z"/>
		</g>
		<g>
			<path class="st7" d="M206,53.1c-0.2,0-0.4,0.1-0.6,0.3l-5.4,5.4l-5.4-5.4c-0.2-0.2-0.4-0.3-0.6-0.3s-0.4,0.1-0.6,0.3
				c-0.3,0.3-0.3,0.9,0,1.2l5.4,5.4l-5.4,5.4c-0.3,0.3-0.3,0.9,0,1.2c0.2,0.2,0.4,0.3,0.6,0.3s0.4-0.1,0.6-0.3l5.4-5.4l5.4,5.4
				c0.2,0.2,0.4,0.3,0.6,0.3s0.4-0.1,0.6-0.3c0.3-0.3,0.3-0.9,0-1.2l-5.4-5.4l5.4-5.4c0.3-0.3,0.3-0.9,0-1.2
				C206.4,53.2,206.2,53.1,206,53.1L206,53.1z"/>
		</g>
	</g>
</g>
<g>
	<g>
		<g>
			<g>
				<g>
					<g>
						<defs>
							<rect id="SVGID_37_" x="250" width="40" height="40"/>
						</defs>
						<clipPath id="SVGID_38_">
							<use xlink:href="#SVGID_37_"  style="overflow:visible;"/>
						</clipPath>
						<path class="st14" d="M270,0c11,0,20,9,20,20s-9,20-20,20s-20-9-20-20S259,0,270,0 M270,23.3c-4.5,0-8.6,2.1-11.2,5.5
							c2.6,3.3,6.6,5.5,11.2,5.5s8.6-2.1,11.2-5.5C278.6,25.4,274.5,23.3,270,23.3 M270,6.8c-3.4,0-6.1,2.7-6.1,6.1s2.7,6.1,6.1,6.1
							s6.1-2.7,6.1-6.1S273.4,6.8,270,6.8"/>
					</g>
				</g>
			</g>
		</g>
	</g>
</g>
<g>
	<path class="st15" d="M81,55.7c-4.4,0-8,3.6-8,8s3.6,8,8,8s8-3.6,8-8S85.4,55.7,81,55.7z M81,71.2c-4.1,0-7.5-3.3-7.5-7.5
		s3.3-7.5,7.5-7.5s7.5,3.3,7.5,7.5S85.1,71.2,81,71.2z"/>
	<path class="st0" d="M81.3,63.3v-3.2c0-0.2-0.1-0.3-0.3-0.3s-0.3,0.1-0.3,0.3v3.2c-0.4,0.1-0.8,0.5-0.9,0.9h-2.3
		c-0.2,0-0.3,0.1-0.3,0.3s0.1,0.3,0.3,0.3h2.3c0.1,0.5,0.6,0.9,1.2,0.9c0.7,0,1.3-0.6,1.3-1.3C82.3,63.9,81.9,63.4,81.3,63.3z
		 M81,65.1c-0.3,0-0.6-0.3-0.6-0.6s0.3-0.6,0.6-0.6s0.6,0.3,0.6,0.6S81.4,65.1,81,65.1z"/>
	<path class="st0" d="M81,58.5c0.1,0,0.3-0.1,0.3-0.3V58c0-0.1-0.1-0.3-0.3-0.3s-0.3,0.1-0.3,0.3v0.3C80.7,58.4,80.9,58.5,81,58.5z"
		/>
	<path class="st0" d="M81,68.9c-0.1,0-0.3,0.1-0.3,0.3v0.3c0,0.1,0.1,0.3,0.3,0.3s0.3-0.1,0.3-0.3v-0.3C81.3,69.1,81.1,68.9,81,68.9
		z"/>
	<path class="st0" d="M86.7,63.5h-0.3c-0.1,0-0.3,0.1-0.3,0.3c0,0.1,0.1,0.3,0.3,0.3h0.3c0.1,0,0.3-0.1,0.3-0.3S86.9,63.5,86.7,63.5
		z"/>
	<path class="st0" d="M75.5,63.5h-0.3c-0.1,0-0.3,0.1-0.3,0.3c0,0.1,0.1,0.3,0.3,0.3h0.3c0.1,0,0.3-0.1,0.3-0.3S75.7,63.5,75.5,63.5
		z"/>
	<path class="st0" d="M84.9,59.5l-0.2,0.2c-0.1,0.1-0.1,0.3,0,0.4c0.1,0.1,0.1,0.1,0.2,0.1c0.1,0,0.1,0,0.2-0.1l0.2-0.2
		c0.1-0.1,0.1-0.3,0-0.4C85.1,59.4,85,59.4,84.9,59.5z"/>
	<path class="st0" d="M76.9,67.4l-0.2,0.2c-0.1,0.1-0.1,0.3,0,0.4s0.1,0.1,0.2,0.1c0.1,0,0.1,0,0.2-0.1l0.2-0.2
		c0.1-0.1,0.1-0.3,0-0.4C77.2,67.3,77,67.3,76.9,67.4z"/>
	<path class="st0" d="M85.1,67.4c-0.1-0.1-0.3-0.1-0.4,0s-0.1,0.3,0,0.4l0.2,0.2c0.1,0.1,0.1,0.1,0.2,0.1s0.1,0,0.2-0.1
		s0.1-0.3,0-0.4L85.1,67.4z"/>
	<path class="st0" d="M77.1,59.5c-0.1-0.1-0.3-0.1-0.4,0s-0.1,0.3,0,0.4l0.2,0.2c0.1,0.1,0.1,0.1,0.2,0.1s0.1,0,0.2-0.1
		c0.1-0.1,0.1-0.3,0-0.4L77.1,59.5z"/>
</g>
<g>
	<path class="st0" d="M81,56.7c3.8,0,6.9,3.1,6.9,6.9c0,3.8-3.1,6.9-6.9,6.9s-6.9-3.1-6.9-6.9C74.1,59.8,77.2,56.7,81,56.7 M81,55.6
		c-4.4,0-8,3.6-8,8s3.6,8,8,8s8-3.6,8-8S85.4,55.6,81,55.6L81,55.6z"/>
</g>
<g>
	<g>
		<g>
			<g>
				<g>
					<g>
						<defs>
							<rect id="SVGID_39_" x="320" width="20" height="20"/>
						</defs>
						<clipPath id="SVGID_40_">
							<use xlink:href="#SVGID_39_"  style="overflow:visible;"/>
						</clipPath>
						<path class="st16" d="M330,0c5.5,0,10,4.5,10,10s-4.5,10-10,10s-10-4.5-10-10S324.5,0,330,0 M330,11.7c-2.3,0-4.3,1-5.6,2.8
							c1.3,1.6,3.3,2.8,5.6,2.8s4.3-1.1,5.6-2.8C334.3,12.7,332.3,11.7,330,11.7 M330,3.4c-1.7,0-3,1.4-3,3.1s1.3,3,3,3s3-1.3,3-3
							S331.7,3.4,330,3.4"/>
					</g>
				</g>
			</g>
		</g>
	</g>
</g>
<path class="st0" d="M334.7,55.3c-0.4-0.4-1-0.4-1.3,0l-5.9,5.9l-5.9-5.9c-0.4-0.4-1-0.4-1.3,0c-0.4,0.4-0.4,1,0,1.3l5.9,5.9
	l-5.9,5.9c-0.4,0.4-0.4,1,0,1.3c0.2,0.2,0.4,0.3,0.7,0.3s0.5-0.1,0.7-0.3l5.9-5.9l5.9,5.9c0.2,0.2,0.4,0.3,0.7,0.3
	c0.2,0,0.5-0.1,0.7-0.3c0.4-0.4,0.4-1,0-1.3l-5.9-5.9l5.9-5.9C335.1,56.2,335.1,55.6,334.7,55.3z"/>
<path class="st7" d="M334.7,95.3c-0.4-0.4-1-0.4-1.3,0l-5.9,5.9l-5.9-5.9c-0.4-0.4-1-0.4-1.3,0c-0.4,0.4-0.4,1,0,1.3l5.9,5.9
	l-5.9,5.9c-0.4,0.4-0.4,1,0,1.3c0.2,0.2,0.4,0.3,0.7,0.3s0.5-0.1,0.7-0.3l5.9-5.9l5.9,5.9c0.2,0.2,0.4,0.3,0.7,0.3
	c0.2,0,0.5-0.1,0.7-0.3c0.4-0.4,0.4-1,0-1.3l-5.9-5.9l5.9-5.9C335.1,96.2,335.1,95.6,334.7,95.3z"/>
<path class="st17" d="M17.5,126.3c0-1.5,0-3,0-4.5c0-0.3-0.1-0.4-0.4-0.3c-0.5,0-0.9,0-1.4,0c-0.2,0-0.3,0-0.3-0.3
	c0-0.9,0-1.8,0-2.8c0-0.2,0.1-0.3,0.3-0.3c0.5,0,1,0,1.5,0c0.3,0,0.4-0.1,0.4-0.4c0-0.7,0-1.5,0-2.1c0-0.8,0.3-1.7,0.7-2.4
	c0.6-0.9,1.6-1.3,2.7-1.4c1.1,0,2.2,0,3.3,0c0.2,0,0.2,0.1,0.2,0.2c0,0.9,0,1.9,0,2.8c0,0.2-0.1,0.2-0.2,0.2c-0.6,0-1.1,0-1.7,0
	c-0.7,0-1.1,0.4-1.2,1.1c0,0.6,0,1.1,0,1.7c0,0.2,0.1,0.2,0.3,0.2c0.8,0,1.7,0,2.5,0c0.3,0,0.4,0,0.3,0.3c-0.1,0.9-0.2,1.9-0.3,2.8
	c0,0.2-0.1,0.3-0.3,0.3c-0.6,0-1.3,0-1.9,0c-0.5,0-0.5-0.1-0.5,0.4c0,2.9,0,5.9,0,8.9c0,0.3-0.1,0.4-0.4,0.4c-1.1,0-2.2,0-3.3,0
	c-0.3,0-0.4-0.1-0.4-0.4C17.5,129.2,17.5,127.7,17.5,126.3"/>
<path class="st17" d="M74.3,126.6h1.2c0,0,0.4-0.1,0.5-0.3c0.2-0.2,0.2-0.5,0.2-0.5s0-1.6,0.7-1.8c0.7-0.3,1.7,1.6,2.7,2.2
	c0.8,0.5,1.3,0.4,1.3,0.4h2.6c0,0,1.4-0.1,0.7-1.2c-0.1-0.1-0.4-0.8-2-2.3c-1.7-1.6-1.4-1.3,0.5-4c1.2-1.7,1.8-2.6,1.6-3.1
	c-0.2-0.4-1.1-0.3-1.1-0.3h-3c0,0-0.3,0-0.4,0.1c-0.2,0.1-0.3,0.4-0.3,0.4s-0.4,1.2-1.1,2.4c-1.3,2.3-1.8,2.4-2.1,2.3
	c-0.5-0.4-0.4-1.3-0.4-2c0-2.2,0.4-3.2-0.6-3.3c-0.4-0.1-0.5-0.1-1.4-0.2c-1.1,0-2,0-2.5,0.3c-0.4,0.2-0.6,0.5-0.4,0.5
	s0.6,0.1,0.9,0.4c0.4,0.4,0.3,1.3,0.3,1.3s0.2,2.6-0.4,2.9c-0.4,0.3-1-0.3-2.2-2.3c-0.6-1.1-1.1-2.2-1.1-2.2s-0.1-0.3-0.3-0.4
	c-0.2-0.2-0.4-0.2-0.4-0.2h-2.9c0,0-0.4,0-0.6,0.2s0,0.5,0,0.5s2.3,5.3,4.7,7.9C71.7,126.8,74.3,126.6,74.3,126.6"/>
<path class="st17" d="M130,112.3c1.2,0,2.2,1,2.2,2.2s-1,2.2-2.2,2.2s-2.2-1-2.2-2.2C127.9,113.3,128.9,112.3,130,112.3
	 M132.1,123.8c1-0.3,2.1-0.7,3-1.2c0.7-0.4,1-1.4,0.5-2.1s-1.4-1-2.1-0.5c-2.1,1.3-4.9,1.3-7,0c-0.7-0.4-1.7-0.3-2.1,0.5
	c-0.4,0.7-0.3,1.7,0.4,2.1c1,0.6,1.9,1,3,1.2l-2.9,2.9c-0.6,0.6-0.6,1.6,0,2.2c0.3,0.3,0.7,0.4,1,0.4s0.8-0.2,1-0.4l2.9-2.9l2.9,2.9
	c0.6,0.6,1.6,0.6,2.2,0c0.6-0.6,0.6-1.6,0-2.2L132.1,123.8z M130,119.6c2.9,0,5.1-2.3,5.1-5.1c0-2.9-2.3-5.1-5.1-5.1
	c-2.9,0-5.1,2.3-5.1,5.1C124.9,117.3,127.2,119.6,130,119.6"/>
<path class="st7" d="M17.5,181.3c0-1.5,0-3,0-4.5c0-0.3-0.1-0.4-0.4-0.3c-0.5,0-0.9,0-1.4,0c-0.2,0-0.3,0-0.3-0.3c0-0.9,0-1.8,0-2.8
	c0-0.2,0.1-0.3,0.3-0.3c0.5,0,1,0,1.5,0c0.3,0,0.4-0.1,0.4-0.4c0-0.7,0-1.5,0-2.1c0-0.8,0.3-1.7,0.7-2.4c0.6-0.9,1.6-1.3,2.7-1.4
	c1.1,0,2.2,0,3.3,0c0.2,0,0.2,0.1,0.2,0.2c0,0.9,0,1.9,0,2.8c0,0.2-0.1,0.2-0.2,0.2c-0.6,0-1.1,0-1.7,0c-0.7,0-1.1,0.4-1.2,1.1
	c0,0.6,0,1.1,0,1.7c0,0.2,0.1,0.2,0.3,0.2c0.8,0,1.7,0,2.5,0c0.3,0,0.4,0,0.3,0.3c-0.1,0.9-0.2,1.9-0.3,2.8c0,0.2-0.1,0.3-0.3,0.3
	c-0.6,0-1.3,0-1.9,0c-0.5,0-0.5-0.1-0.5,0.4c0,2.9,0,5.9,0,8.9c0,0.3-0.1,0.4-0.4,0.4c-1.1,0-2.2,0-3.3,0c-0.3,0-0.4-0.1-0.4-0.4
	C17.5,184.2,17.5,182.7,17.5,181.3"/>
<path class="st7" d="M74.3,181.6h1.2c0,0,0.4-0.1,0.5-0.3c0.2-0.2,0.2-0.5,0.2-0.5s0-1.6,0.7-1.8c0.7-0.3,1.7,1.6,2.7,2.2
	c0.8,0.5,1.3,0.4,1.3,0.4h2.6c0,0,1.4-0.1,0.7-1.2c-0.1-0.1-0.4-0.8-2-2.3c-1.7-1.6-1.4-1.3,0.5-4c1.2-1.7,1.8-2.6,1.6-3.1
	c-0.2-0.4-1.1-0.3-1.1-0.3h-3c0,0-0.3,0-0.4,0.1c-0.2,0.1-0.3,0.4-0.3,0.4s-0.4,1.2-1.1,2.4c-1.3,2.3-1.8,2.4-2.1,2.3
	c-0.5-0.4-0.4-1.3-0.4-2c0-2.2,0.4-3.2-0.6-3.3c-0.4-0.1-0.5-0.1-1.4-0.2c-1.1,0-2,0-2.5,0.3c-0.4,0.2-0.6,0.5-0.4,0.5
	s0.6,0.1,0.9,0.4c0.4,0.4,0.3,1.3,0.3,1.3s0.2,2.6-0.4,2.9c-0.4,0.3-1-0.3-2.2-2.3c-0.6-1.1-1.1-2.2-1.1-2.2s-0.1-0.3-0.3-0.4
	c-0.2-0.2-0.4-0.2-0.4-0.2h-2.9c0,0-0.4,0-0.6,0.2c-0.2,0.2,0,0.5,0,0.5s2.3,5.3,4.7,7.9C71.7,181.8,74.3,181.6,74.3,181.6"/>
<path class="st7" d="M130,167.3c1.2,0,2.2,1,2.2,2.2s-1,2.2-2.2,2.2s-2.2-1-2.2-2.2C127.9,168.3,128.9,167.3,130,167.3 M132.1,178.8
	c1-0.3,2.1-0.7,3-1.2c0.7-0.4,1-1.4,0.5-2.1s-1.4-1-2.1-0.5c-2.1,1.3-4.9,1.3-7,0c-0.7-0.4-1.7-0.3-2.1,0.5
	c-0.4,0.7-0.3,1.7,0.4,2.1c1,0.6,1.9,1,3,1.2l-2.9,2.9c-0.6,0.6-0.6,1.6,0,2.2c0.3,0.3,0.7,0.4,1,0.4s0.8-0.2,1-0.4l2.9-2.9l2.9,2.9
	c0.6,0.6,1.6,0.6,2.2,0s0.6-1.6,0-2.2L132.1,178.8z M130,174.6c2.9,0,5.1-2.3,5.1-5.1c0-2.9-2.3-5.1-5.1-5.1c-2.9,0-5.1,2.3-5.1,5.1
	S127.2,174.6,130,174.6"/>
<g>
	<g>
		<g>
			<g>
				<g>
					<g>
						<defs>
							<rect id="SVGID_41_" x="367.5" y="0.5" width="25" height="25"/>
						</defs>
						<clipPath id="SVGID_42_">
							<use xlink:href="#SVGID_41_"  style="overflow:visible;"/>
						</clipPath>
						<path class="st18" d="M380,0.5c6.9,0,12.5,5.6,12.5,12.5s-5.6,12.5-12.5,12.5s-12.5-5.6-12.5-12.5S373.1,0.5,380,0.5
							 M380,15.1c-2.9,0-5.4,1.3-7,3.5c1.6,2,4.1,3.5,7,3.5s5.4-1.4,7-3.5C385.4,16.4,382.9,15.1,380,15.1 M380,4.7
							c-2.1,0-3.8,1.7-3.8,3.9s1.6,3.8,3.8,3.8s3.8-1.6,3.8-3.8S382.1,4.7,380,4.7"/>
					</g>
				</g>
			</g>
		</g>
	</g>
</g>
<g>
	<path class="st19" d="M190.3,113.6l6.6-6.6c0.2-0.2,0.2-0.4,0-0.6c-0.2-0.2-0.4-0.2-0.6,0l-6.3,6.3l-6.3-6.3
		c-0.2-0.2-0.4-0.2-0.6,0c-0.1,0.1-0.1,0.2-0.1,0.3s0,0.2,0.1,0.3l6.6,6.6C189.9,113.7,190.1,113.7,190.3,113.6z"/>
</g>
<path class="st20" d="M197,183.6c-0.2,0-0.5-0.1-0.7-0.2l-5.9-5.1c-0.4-0.4-0.5-1-0.1-1.4s1-0.5,1.4-0.1l5.1,4.4l11.2-14.4
	c0.3-0.4,1-0.5,1.4-0.2c0.4,0.3,0.5,1,0.2,1.4l-11.8,15.2C197.7,183.5,197.4,183.6,197,183.6C197.1,183.6,197.1,183.6,197,183.6z
	 M220,175c0-11-9-20-20-20s-20,9-20,20s9,20,20,20S220,186,220,175z M218,175c0,9.9-8.1,18-18,18s-18-8.1-18-18s8.1-18,18-18
	S218,165.1,218,175z"/>
<path class="st17" d="M279.4,112.2c-0.8,0.4-1.7,0.7-2.6,0.9c-0.7-0.7-1.8-1.2-3-1.2c-2.3,0-4.1,1.7-4.1,3.8c0,0.3,0,0.6,0.1,0.9
	c-3.4-0.2-6.4-1.7-8.5-4c-0.4,0.6-0.6,1.2-0.6,1.9c0,1.3,0.7,2.5,1.8,3.2c-0.7,0-1.3-0.2-1.9-0.5v0c0,1.8,1.4,3.4,3.3,3.7
	c-0.3,0.1-0.7,0.1-1.1,0.1c-0.3,0-0.5,0-0.8-0.1c0.5,1.5,2,2.6,3.8,2.6c-1.4,1-3.2,1.6-5.1,1.6c-0.3,0-0.7,0-1-0.1
	c1.8,1.1,4,1.7,6.3,1.7c7.5,0,11.7-5.8,11.7-10.8l0-0.5c0.8-0.5,1.5-1.2,2.1-2c-0.7,0.3-1.5,0.5-2.4,0.6
	C278.5,113.8,279.1,113,279.4,112.2z"/>
<path class="st7" d="M279.4,168.8c-0.8,0.4-1.7,0.7-2.6,0.9c-0.7-0.7-1.8-1.2-3-1.2c-2.3,0-4.1,1.7-4.1,3.8c0,0.3,0,0.6,0.1,0.9
	c-3.4-0.2-6.4-1.7-8.5-4c-0.4,0.6-0.6,1.2-0.6,1.9c0,1.3,0.7,2.5,1.8,3.2c-0.7,0-1.3-0.2-1.9-0.5v0c0,1.8,1.4,3.4,3.3,3.7
	c-0.3,0.1-0.7,0.1-1.1,0.1c-0.3,0-0.5,0-0.8-0.1c0.5,1.5,2,2.6,3.8,2.6c-1.4,1-3.2,1.6-5.1,1.6c-0.3,0-0.7,0-1-0.1
	c1.8,1.1,4,1.7,6.3,1.7c7.5,0,11.7-5.8,11.7-10.8l0-0.5c0.8-0.5,1.5-1.2,2.1-2c-0.7,0.3-1.5,0.5-2.4,0.6
	C278.5,170.4,279.1,169.7,279.4,168.8z"/>
</svg>
