<?xml version="1.0" encoding="utf-8"?>
<!-- Generator: Adobe Illustrator 21.0.2, SVG Export Plug-In . SVG Version: 6.00 Build 0)  -->
<svg version="1.1" id="Layer_1" xmlns="http://www.w3.org/2000/svg" xmlns:xlink="http://www.w3.org/1999/xlink" x="0px" y="0px"
	 width="22.7px" height="18.4px" viewBox="0 0 22.7 18.4" style="enable-background:new 0 0 22.7 18.4;" xml:space="preserve">
<style type="text/css">
	.st0{fill:#FFFFFF;}
</style>
<title>Ресурс 1</title>
<g transform="translate(-539.18 -568.86)">
	<path class="st0" d="M546.3,587.3c8.6,0,13.2-7.1,13.2-13.2c0-0.2,0-0.4,0-0.6c0.9-0.7,1.7-1.5,2.3-2.4c-0.8,0.4-1.7,0.6-2.7,0.7
		c1-0.6,1.7-1.5,2-2.6c-0.9,0.5-1.9,0.9-3,1.1c-0.8-0.9-2.1-1.5-3.4-1.5c-2.6,0-4.7,2.1-4.7,4.6c0,0.4,0,0.7,0.1,1.1
		c-3.9-0.2-7.3-2-9.6-4.9c-0.4,0.7-0.6,1.5-0.6,2.3c0,1.6,0.8,3,2.1,3.9c-0.8,0-1.5-0.2-2.1-0.6c0,0,0,0,0,0.1
		c0,2.3,1.6,4.1,3.7,4.6c-0.4,0.1-0.8,0.2-1.2,0.2c-0.3,0-0.6,0-0.9-0.1c0.6,1.8,2.3,3.2,4.3,3.2c-1.6,1.2-3.6,2-5.8,2
		c-0.4,0-0.7,0-1.1-0.1C541.2,586.5,543.7,587.3,546.3,587.3"/>
</g>
</svg>
