<?xml version="1.0" encoding="utf-8"?>
<!-- Generator: Adobe Illustrator 21.0.2, SVG Export Plug-In . SVG Version: 6.00 Build 0)  -->
<svg version="1.1" id="Layer_1" xmlns="http://www.w3.org/2000/svg"  x="0px" y="0px"
	 width="23.99px" height="23px" viewBox="0 0 23.99 23" style="enable-background:new 0 0 23.99 23;" xml:space="preserve">
<style type="text/css">
	.st0{fill:#FFFFFF;}
	.st1{fill:#767676;}
</style>
<g>
	<polygon class="st0" points="11.91,18.78 5.6,21.34 6.18,14.52 1.81,9.27 8.44,7.72 12.05,1.92 15.56,7.78 22.18,9.44 17.71,14.62 
		18.18,21.45 	"/>
	<path class="st1" d="M12.03,3.84l2.46,4.1l0.43,0.71l0.8,0.2l4.64,1.17l-3.14,3.64l-0.54,0.62l0.06,0.82l0.33,4.79l-4.39-1.86
		l-0.76-0.32l-0.77,0.31L6.74,19.8l0.41-4.79l0.07-0.82l-0.53-0.63L3.61,9.87l4.66-1.09L9.07,8.6l0.44-0.7L12.03,3.84 M12.07,0
		L7.81,6.84L0,8.67l5.15,6.18l-0.68,8.04l7.44-3.02L19.29,23l-0.56-8.05l5.25-6.1l-7.78-1.95L12.07,0L12.07,0z"/>
</g>
</svg>
